<svg xmlns="http://www.w3.org/2000/svg" viewBox="0 0 32 32" width="32" height="32">
  <rect width="32" height="32" rx="7" fill="#0A0A0A"/>
  <!-- Ear tufts -->
  <path d="M8.5 10.5c-.6-2.2-.2-4 .8-4.9 1 1 1.6 2.7 1.6 4.6l-2.4.3Z" fill="#F5F5F5"/>
  <path d="M23.5 10.5c.6-2.2.2-4-.8-4.9-1 1-1.6 2.7-1.6 4.6l2.4.3Z" fill="#F5F5F5"/>
  <!-- Owl body -->
  <path d="M16 7.5c-4.8 0-8 3.3-8 8.2 0 5.6 3.6 9.8 8 9.8s8-4.2 8-9.8c0-4.9-3.2-8.2-8-8.2Z" fill="#F5F5F5"/>
  <!-- Eye discs -->
  <circle cx="11.6" cy="14.4" r="3.9" fill="#0A0A0A"/>
  <circle cx="20.4" cy="14.4" r="3.9" fill="#0A0A0A"/>
  <!-- Eyes -->
  <circle cx="11.6" cy="14.4" r="2.2" fill="#F5F5F5"/>
  <circle cx="20.4" cy="14.4" r="2.2" fill="#F5F5F5"/>
  <circle cx="12.1" cy="14.4" r="1.05" fill="#0A0A0A"/>
  <circle cx="20.9" cy="14.4" r="1.05" fill="#0A0A0A"/>
  <!-- Beak -->
  <path d="M16 16l1.9 2.9h-3.8L16 16Z" fill="#F5A623"/>
  <!-- Feet -->
  <path d="M13 25.4l-.8 1.9M14.5 25.7v1.9M18 25.7v1.9M19.5 25.4l.8 1.9" stroke="#F5A623" stroke-width="1.1" stroke-linecap="round"/>
</svg>
